# Blender v2.79 (sub 0) OBJ File: 'grass2.blend'
# www.blender.org
mtllib grass6.mtl
o Plane
v -0.400668 0.043640 0.028033
v 0.381156 0.043640 0.028033
v -0.400668 0.443196 -1.061568
v 0.381156 0.449632 -1.061032
v -0.009756 0.043640 0.028033
v -0.009756 0.442074 -1.061661
v -0.348637 0.374855 -0.720307
v -0.348637 0.210004 -0.240725
v 0.300370 0.228601 -0.239396
v 0.300370 0.416395 -0.717066
v -0.009756 0.354405 -0.238848
v -0.009756 0.511210 -0.719100
v 0.183316 0.088687 0.253295
v -0.182897 0.081276 -0.236830
v -0.508038 0.410925 0.782752
v -0.874250 0.368424 0.289703
v 0.000209 0.081276 0.007923
v -0.691144 0.378014 0.535256
v -0.315083 0.356760 0.582955
v -0.009821 0.238978 0.349273
v -0.313821 0.216719 -0.059103
v -0.619083 0.308398 0.172404
v -0.168555 0.336830 0.137310
v -0.473818 0.433805 0.369258
v 0.201337 0.064064 -0.261736
v -0.170149 0.080710 0.257978
v 0.867405 0.632509 0.191314
v 0.495919 0.695382 0.714880
v 0.015594 0.050970 -0.003663
v 0.681662 0.652701 0.452160
v 0.619747 0.481932 0.067665
v 0.320051 0.243567 -0.138787
v 0.011177 0.292419 0.294895
v 0.310873 0.543957 0.502444
v 0.136183 0.358448 0.064998
v 0.435879 0.617588 0.273181
v 0.348800 0.071295 -0.053183
v -0.341197 0.095019 -0.152813
v 0.203175 0.164821 0.952655
v -0.486821 0.184713 0.852705
v 0.003802 0.083157 -0.102998
v -0.141823 0.174050 0.902620
v 0.202686 0.177539 0.645242
v 0.266842 0.160101 0.208073
v -0.305949 0.181131 0.125920
v -0.370106 0.194483 0.562748
v -0.032819 0.289442 0.195073
v -0.096976 0.305866 0.632156
v -0.137366 0.182410 -0.309020
v 0.121753 0.047751 0.153264
v 0.539655 0.567673 -0.607930
v 0.798775 0.394631 -0.148844
v -0.007806 0.111075 -0.078212
v 0.669215 0.466803 -0.379583
v 0.343808 0.486191 -0.469752
v 0.044762 0.339602 -0.331928
v 0.259852 0.203132 0.050109
v 0.558898 0.323581 -0.089892
v 0.156621 0.345180 -0.110379
v 0.455667 0.481466 -0.249061
v -0.220716 0.011982 0.116304
v 0.175204 0.181973 -0.268991
v -0.752624 0.652983 -0.226598
v -0.356704 0.824028 -0.611806
v -0.022756 0.082747 -0.077529
v -0.554664 0.726576 -0.420196
v -0.549127 0.484940 -0.119854
v -0.310161 0.229288 0.043227
v 0.018864 0.369994 -0.275813
v -0.220102 0.635762 -0.438052
v -0.121793 0.379716 -0.079043
v -0.360760 0.644459 -0.241367
v 0.137412 0.136367 -0.003420
v -0.192567 0.208752 -0.014370
v 0.184429 0.594962 0.305314
v -0.145550 0.671570 0.294716
v -0.027577 0.166228 -0.009423
v 0.019439 0.628571 0.299623
v 0.152120 0.467126 0.186798
v 0.133191 0.272894 0.042209
v -0.140569 0.338388 0.032775
v -0.121639 0.535229 0.177582
v -0.002370 0.350008 0.004711
v 0.016560 0.542887 0.149188
vt 0.995154 0.380046
vt 0.775391 0.569110
vt 0.775391 0.380046
vt 0.555628 0.380046
vt 0.555628 0.569110
vt 0.775391 0.001917
vt 0.555628 0.190981
vt 0.555628 0.001917
vt 0.775391 0.190981
vt 0.995154 0.190981
vt 0.995154 0.569110
vt 0.995154 0.001917
vt 0.995154 0.380046
vt 0.775391 0.569110
vt 0.775391 0.380046
vt 0.555628 0.380046
vt 0.555628 0.569110
vt 0.775391 0.001917
vt 0.555628 0.190981
vt 0.555628 0.001917
vt 0.775391 0.190981
vt 0.995154 0.190981
vt 0.995154 0.569110
vt 0.995154 0.001917
vt 0.995154 0.380046
vt 0.775391 0.569110
vt 0.775391 0.380046
vt 0.555628 0.380046
vt 0.555628 0.569110
vt 0.775391 0.001917
vt 0.555628 0.190981
vt 0.555628 0.001917
vt 0.775391 0.190981
vt 0.995154 0.190981
vt 0.995154 0.569110
vt 0.995154 0.001917
vt 0.995154 0.380046
vt 0.775391 0.569110
vt 0.775391 0.380046
vt 0.555628 0.380046
vt 0.555628 0.569110
vt 0.775391 0.001917
vt 0.555628 0.190981
vt 0.555628 0.001917
vt 0.775391 0.190981
vt 0.995154 0.190981
vt 0.995154 0.569110
vt 0.995154 0.001917
vt 0.995154 0.380046
vt 0.775391 0.569110
vt 0.775391 0.380046
vt 0.555628 0.380046
vt 0.555628 0.569110
vt 0.775391 0.001917
vt 0.555628 0.190981
vt 0.555628 0.001917
vt 0.775391 0.190981
vt 0.995154 0.190981
vt 0.995154 0.569110
vt 0.995154 0.001917
vt 0.995154 0.380046
vt 0.775391 0.569110
vt 0.775391 0.380046
vt 0.555628 0.380046
vt 0.555628 0.569110
vt 0.775391 0.001917
vt 0.555628 0.190981
vt 0.555628 0.001917
vt 0.775391 0.190981
vt 0.995154 0.190981
vt 0.995154 0.569110
vt 0.995154 0.001917
vt 0.995154 0.380046
vt 0.775391 0.569110
vt 0.775391 0.380046
vt 0.555628 0.569110
vt 0.555628 0.380046
vt 0.775391 0.001917
vt 0.555628 0.190981
vt 0.555628 0.001917
vt 0.775391 0.190981
vt 0.995154 0.190981
vt 0.995154 0.569110
vt 0.995154 0.001917
vn 0.2191 0.9663 0.1351
vn -0.0327 0.9992 -0.0221
vn -0.0409 0.9976 0.0550
vn -0.2751 0.9478 0.1609
vn 0.0028 0.9806 0.1959
vn -0.0096 0.7500 0.6614
vn -0.2460 0.8248 0.5090
vn 0.0000 0.8503 0.5263
vn -0.0158 0.8433 0.5371
vn 0.2297 0.8081 0.5424
vn -0.0194 0.9956 0.0916
vn 0.0000 0.8224 0.5688
vn -0.1068 0.9312 -0.3486
vn -0.0421 0.9966 -0.0706
vn -0.0378 0.9956 -0.0859
vn 0.2153 0.9739 0.0716
vn 0.0793 0.9788 -0.1888
vn 0.5231 0.7413 -0.4205
vn 0.5459 0.8259 -0.1408
vn 0.4532 0.8142 -0.3628
vn 0.3715 0.8615 -0.3460
vn 0.2224 0.8264 -0.5173
vn 0.1578 0.9751 -0.1557
vn 0.4321 0.8419 -0.3233
vn -0.4537 0.8856 -0.0996
vn -0.2014 0.9446 -0.2591
vn -0.2408 0.9320 -0.2709
vn -0.1492 0.8387 -0.5238
vn -0.3658 0.8710 -0.3279
vn -0.6734 0.5293 -0.5160
vn -0.4382 0.6591 -0.6112
vn -0.6103 0.6809 -0.4047
vn -0.5803 0.6597 -0.4774
vn -0.6989 0.6533 -0.2911
vn -0.3072 0.8808 -0.3603
vn -0.6110 0.6111 -0.5032
vn -0.2751 0.9599 0.0539
vn -0.0100 0.9712 0.2381
vn -0.0154 0.9784 0.2062
vn 0.2865 0.9489 0.1321
vn 0.0207 0.9989 0.0413
vn 0.0923 0.8953 -0.4357
vn 0.3060 0.9237 -0.2303
vn 0.0759 0.9511 -0.2994
vn 0.0591 0.9596 -0.2752
vn -0.1812 0.9351 -0.3045
vn 0.0246 0.9987 0.0435
vn 0.0764 0.9499 -0.3031
vn 0.0460 0.8099 0.5848
vn 0.0476 0.9364 0.3476
vn 0.0259 0.9262 0.3761
vn -0.1733 0.9620 0.2110
vn -0.0669 0.8981 0.4347
vn -0.5744 0.6243 0.5295
vn -0.5353 0.7809 0.3220
vn -0.5260 0.6832 0.5064
vn -0.4089 0.7492 0.5210
vn -0.3015 0.6903 0.6576
vn -0.1749 0.9074 0.3820
vn -0.4803 0.7397 0.4712
vn 0.4108 0.8227 0.3930
vn 0.1520 0.8352 0.5284
vn 0.1768 0.8263 0.5347
vn 0.0502 0.6754 0.7357
vn 0.3038 0.7450 0.5938
vn 0.5764 0.3349 0.7454
vn 0.3248 0.4348 0.8399
vn 0.5326 0.4584 0.7114
vn 0.4906 0.5030 0.7115
vn 0.6407 0.5378 0.5479
vn 0.2357 0.7459 0.6229
vn 0.4992 0.4421 0.7452
vn -0.0841 0.7073 -0.7019
vn 0.1166 0.8117 -0.5722
vn 0.1276 0.7085 -0.6941
vn 0.3414 0.7179 -0.6066
vn 0.4829 0.5088 -0.7126
vn 0.0813 0.1917 -0.9781
vn 0.3220 0.3128 -0.8935
vn 0.0919 0.3182 -0.9435
vn 0.1071 0.3680 -0.9236
vn -0.1290 0.3841 -0.9142
vn 0.1933 0.6587 -0.7272
vn 0.1062 0.3019 -0.9474
usemtl None
s 1
f 10/1/1 6/2/2 12/3/3
f 7/4/4 6/2/2 3/5/5
f 5/6/6 8/7/7 1/8/8
f 11/9/9 7/4/4 8/7/7
f 5/6/6 9/10/10 11/9/9
f 11/9/9 10/1/1 12/3/3
f 10/1/1 4/11/11 6/2/2
f 7/4/4 12/3/3 6/2/2
f 5/6/6 11/9/9 8/7/7
f 11/9/9 12/3/3 7/4/4
f 5/6/6 2/12/12 9/10/10
f 11/9/9 9/10/10 10/1/1
s 2
f 22/13/13 18/14/14 24/15/15
f 19/16/16 18/14/14 15/17/17
f 17/18/18 20/19/19 13/20/20
f 23/21/21 19/16/16 20/19/19
f 17/18/18 21/22/22 23/21/21
f 23/21/21 22/13/13 24/15/15
f 22/13/13 16/23/23 18/14/14
f 19/16/16 24/15/15 18/14/14
f 17/18/18 23/21/21 20/19/19
f 23/21/21 24/15/15 19/16/16
f 17/18/18 14/24/24 21/22/22
f 23/21/21 21/22/22 22/13/13
s 3
f 34/25/25 30/26/26 36/27/27
f 31/28/28 30/26/26 27/29/29
f 29/30/30 32/31/31 25/32/32
f 35/33/33 31/28/28 32/31/31
f 29/30/30 33/34/34 35/33/33
f 35/33/33 34/25/25 36/27/27
f 34/25/25 28/35/35 30/26/26
f 31/28/28 36/27/27 30/26/26
f 29/30/30 35/33/33 32/31/31
f 35/33/33 36/27/27 31/28/28
f 29/30/30 26/36/36 33/34/34
f 35/33/33 33/34/34 34/25/25
s 4
f 46/37/37 42/38/38 48/39/39
f 43/40/40 42/38/38 39/41/41
f 41/42/42 44/43/43 37/44/44
f 47/45/45 43/40/40 44/43/43
f 41/42/42 45/46/46 47/45/45
f 47/45/45 46/37/37 48/39/39
f 46/37/37 40/47/47 42/38/38
f 43/40/40 48/39/39 42/38/38
f 41/42/42 47/45/45 44/43/43
f 47/45/45 48/39/39 43/40/40
f 41/42/42 38/48/48 45/46/46
f 47/45/45 45/46/46 46/37/37
s 5
f 58/49/49 54/50/50 60/51/51
f 55/52/52 54/50/50 51/53/53
f 53/54/54 56/55/55 49/56/56
f 59/57/57 55/52/52 56/55/55
f 53/54/54 57/58/58 59/57/57
f 59/57/57 58/49/49 60/51/51
f 58/49/49 52/59/59 54/50/50
f 55/52/52 60/51/51 54/50/50
f 53/54/54 59/57/57 56/55/55
f 59/57/57 60/51/51 55/52/52
f 53/54/54 50/60/60 57/58/58
f 59/57/57 57/58/58 58/49/49
s 6
f 70/61/61 66/62/62 72/63/63
f 67/64/64 66/62/62 63/65/65
f 65/66/66 68/67/67 61/68/68
f 71/69/69 67/64/64 68/67/67
f 65/66/66 69/70/70 71/69/69
f 71/69/69 70/61/61 72/63/63
f 70/61/61 64/71/71 66/62/62
f 67/64/64 72/63/63 66/62/62
f 65/66/66 71/69/69 68/67/67
f 71/69/69 72/63/63 67/64/64
f 65/66/66 62/72/72 69/70/70
f 71/69/69 69/70/70 70/61/61
s 7
f 82/73/73 78/74/74 84/75/75
f 84/75/75 75/76/76 79/77/77
f 77/78/78 80/79/79 73/80/80
f 83/81/81 79/77/77 80/79/79
f 77/78/78 81/82/82 83/81/81
f 83/81/81 82/73/73 84/75/75
f 82/73/73 76/83/83 78/74/74
f 84/75/75 78/74/74 75/76/76
f 77/78/78 83/81/81 80/79/79
f 83/81/81 84/75/75 79/77/77
f 77/78/78 74/84/84 81/82/82
f 83/81/81 81/82/82 82/73/73
