# Blender v2.79 (sub 0) OBJ File: 'grass.blend'
# www.blender.org
mtllib grass4.mtl
o Plane.004
v 0.801316 2.809991 0.044196
v 0.468571 -0.149763 0.031594
v -0.982051 2.906451 -0.081358
v -0.854290 -0.078555 -0.016547
v -0.083532 -0.041418 -0.332991
v -0.031510 2.621323 -0.749151
v -0.116189 -0.089722 0.575042
v -0.128062 2.547145 0.893460
vt 0.992400 0.004912
vt 0.687287 0.496064
vt 0.682404 0.002959
vt 0.992400 0.004912
vt 0.687287 0.496064
vt 0.682404 0.002959
vt 0.997283 0.498017
vt 0.997283 0.498017
vn 0.0364 0.0002 -0.9993
vn 0.9994 0.0002 0.0359
vn 0.0692 -0.0187 -0.9974
vn 0.9983 -0.0104 0.0582
usemtl None
s off
f 4/1/1 1/2/1 2/3/1
f 5/4/2 8/5/2 7/6/2
f 4/1/3 3/7/3 1/2/3
f 5/4/4 6/8/4 8/5/4
