# Blender v2.79 (sub 0) OBJ File: 'grass.blend'
# www.blender.org
mtllib grass2.mtl
o Plane.005
v 1.029428 2.409081 0.044196
v 0.900753 -0.160748 0.039021
v -1.106583 2.505540 -0.081358
v -1.182891 -0.067571 -0.023974
v -0.069525 -0.063668 0.118099
v -0.194816 -0.115720 -0.791348
v 0.023564 1.855609 -0.803465
v -0.335458 -0.108638 0.997166
v -0.122033 1.862941 1.048055
vt 0.707244 0.000030
vt 0.301545 0.493134
vt 0.296662 0.000030
vt 0.296662 0.000030
vt 0.501953 0.000030
vt 0.301545 0.493134
vt 0.712127 0.493134
vt 0.707244 0.000030
vt 0.712127 0.493134
vn 0.0302 0.0005 -0.9995
vn 0.9529 -0.1104 0.2826
vn -0.9855 0.1100 0.1295
vn 0.0576 -0.0240 -0.9981
vn 0.9969 -0.0107 0.0784
vn 0.9855 -0.1100 -0.1295
vn -0.9529 0.1104 -0.2826
vn -0.9969 0.0107 -0.0784
usemtl None
s off
f 4/1/1 1/2/1 2/3/1
f 8/4/2 5/5/2 9/6/2
f 7/7/3 6/8/3 5/5/3
f 4/1/4 3/9/4 1/2/4
f 7/7/5 9/6/5 5/5/5
f 5/5/6 6/8/6 7/7/6
f 5/5/7 8/4/7 9/6/7
f 9/6/8 7/7/8 5/5/8
