# Blender v2.79 (sub 0) OBJ File: 'grass.blend'
# www.blender.org
mtllib grass5.mtl
o Plane
v 0.288483 2.409081 -0.213215
v -0.007426 -0.160748 -0.296874
v -0.637193 2.505540 -0.081358
v -0.678273 -0.067571 -0.023974
v 0.202830 2.438780 0.005539
v -0.135256 -0.132059 0.019625
v -0.048697 2.086820 0.494985
v 0.134724 -0.127484 0.142181
v -0.183634 2.163202 -0.598865
v -0.117138 -0.060090 -0.646125
v -0.240345 2.102446 0.398917
v -0.141981 -0.117205 -0.001441
vt 0.158300 -0.000727
vt 0.014757 0.475271
vt 0.029951 -0.005677
vt 0.264076 0.008002
vt 0.073002 0.471089
vt 0.158300 -0.000727
vt 0.014757 0.475271
vt 0.029951 -0.005677
vt 0.269427 0.484732
vt 0.264076 0.008002
vt 0.269427 0.484732
vt 0.073002 0.471089
vn -0.9170 0.1180 -0.3811
vn 0.0782 -0.0157 -0.9968
vn 0.4586 0.1767 -0.8709
vn 0.9987 0.0290 0.0411
vn -0.9190 0.1188 -0.3760
vn 0.1010 -0.0238 -0.9946
vn 0.4525 0.1777 -0.8739
vn 0.9977 0.0336 0.0588
usemtl None
s off
f 6/1/1 1/2/1 2/3/1
f 4/4/2 5/5/2 6/1/2
f 12/6/3 7/7/3 8/8/3
f 9/9/4 12/6/4 10/10/4
f 6/1/5 5/5/5 1/2/5
f 4/4/6 3/11/6 5/5/6
f 12/6/7 11/12/7 7/7/7
f 9/9/8 11/12/8 12/6/8
