# Blender v2.79 (sub 0) OBJ File: 'pine.blend'
# www.blender.org
mtllib pineSprite.mtl
o Plane_Plane.202
v 0.010327 -0.183739 -2.843979
v 0.010325 5.974312 -2.843979
v 0.010325 -0.183739 2.846436
v 0.010324 5.974312 2.846436
v 0.010324 -0.183739 2.846436
v 0.010325 5.974312 2.846436
v 0.010325 -0.183739 -2.843979
v 0.010326 5.974312 -2.843979
v -2.834882 -0.183738 0.001227
v -2.834882 5.974312 0.001228
v 2.806675 -0.183739 0.001229
v 2.806675 5.974312 0.001230
v 2.806675 -0.183739 0.001230
v 2.806675 5.974312 0.001229
v -2.834882 -0.183738 0.001228
v -2.834882 5.974312 0.001227
vt 1.016590 1.005074
vt 0.507408 0.495892
vt 1.016590 0.495892
vt 0.507953 1.000755
vt -0.001229 0.491573
vt 0.507953 0.491573
vt 1.019469 0.500755
vt 0.510288 -0.008427
vt 1.019469 -0.008427
vt 0.500755 0.507953
vt -0.008427 -0.001229
vt 0.500755 -0.001229
vt 0.507408 1.005074
vt -0.001229 1.000755
vt 0.510288 0.500755
vt -0.008427 0.507953
vn 1.0000 0.0000 0.0000
vn -1.0000 0.0000 -0.0000
vn 0.0000 0.0000 -1.0000
vn -0.0000 0.0000 1.0000
usemtl None
s off
f 2/1/1 3/2/1 1/3/1
f 6/4/2 7/5/2 5/6/2
f 10/7/3 11/8/3 9/9/3
f 14/10/4 15/11/4 13/12/4
f 2/1/1 4/13/1 3/2/1
f 6/4/2 8/14/2 7/5/2
f 10/7/3 12/15/3 11/8/3
f 14/10/4 16/16/4 15/11/4
