# Blender v2.79 (sub 0) OBJ File: 'rock.blend'
# www.blender.org
mtllib sphere.mtl
o Icosphere
v 0.014904 -2.671587 0.034019
v 1.939735 -1.201163 1.432475
v -0.720302 -1.201164 2.296789
v -2.364315 -1.201153 0.034019
v -0.720302 -1.201164 -2.228750
v 1.939735 -1.201163 -1.364436
v 0.750109 1.178090 2.296789
v -1.909928 1.178089 1.432475
v -1.909928 1.178089 -1.364436
v 0.750109 1.178090 -2.228750
v 2.394122 1.178079 0.034019
v 0.014904 2.648513 0.034019
v -0.417236 -2.274320 1.364032
v 1.146283 -2.274319 0.856005
v 0.714148 -1.410025 2.186031
v 2.277669 -1.410021 0.034019
v 1.146283 -2.274319 -0.787966
v -1.383564 -2.274313 0.034019
v -1.815714 -1.410022 1.364036
v -0.417236 -2.274320 -1.295993
v -1.815714 -1.410022 -1.295997
v 0.714148 -1.410025 -2.117992
v 2.544765 -0.011537 0.856008
v 2.544765 -0.011537 -0.787969
v 0.014904 -0.011537 2.694069
v 1.578442 -0.011537 2.186044
v -2.514958 -0.011537 0.856008
v -1.548635 -0.011537 2.186044
v -1.548635 -0.011537 -2.118005
v -2.514958 -0.011537 -0.787969
v 1.578442 -0.011537 -2.118005
v 0.014904 -0.011537 -2.626030
v 1.845521 1.386947 1.364036
v -0.684341 1.386951 2.186031
v -2.247862 1.386947 0.034019
v -0.684341 1.386951 -2.117992
v 1.845521 1.386947 -1.295997
v 0.447043 2.251246 1.364032
v 1.413371 2.251239 0.034019
v -1.116476 2.251245 0.856005
v -1.116476 2.251245 -0.787966
v 0.447043 2.251246 -1.295993
vt 0.000001 0.140375
vt 0.285156 0.082003
vt 0.136517 0.239774
vt 0.391599 0.234430
vt 0.533574 0.185359
vt 0.013547 0.315798
vt 1.000001 0.140375
vt 1.013547 0.315798
vt 0.889675 0.265576
vt 0.758672 0.118686
vt 0.468683 0.362005
vt 0.192218 0.390690
vt 0.272734 0.281677
vt 0.269566 0.481597
vt 0.019325 0.491671
vt 0.102899 0.431585
vt 0.078073 0.625578
vt 0.844367 0.423380
vt 0.933256 0.450301
vt 0.863647 0.595430
vt 0.659933 0.261946
vt 0.766654 0.318476
vt 0.678092 0.435309
vt 0.363647 0.404570
vt 0.178092 0.564691
vt 1.019325 0.491671
vt 1.078073 0.625578
vt 0.968683 0.637995
vt 0.769566 0.518403
vt 0.578073 0.374422
vt 0.344367 0.576620
vt 0.433256 0.549699
vt 0.389675 0.734424
vt 0.159933 0.738054
vt 0.266654 0.681524
vt 0.258672 0.881314
vt 0.891599 0.765570
vt 1.033574 0.814641
vt 0.785156 0.917997
vt 0.692218 0.609310
vt 0.772734 0.718323
vt 0.636517 0.760226
vt 0.519325 0.508329
vt 0.602899 0.568415
vt 0.513547 0.684202
vt 0.500001 0.859625
vt 1.258672 0.881314
vt 0.033574 0.814641
vn 0.0000 -1.0000 0.0000
vn 0.4253 -0.8506 0.3090
vn -0.1625 -0.8506 0.5000
vn 0.7236 -0.4472 0.5257
vn 0.8506 -0.5257 0.0000
vn -0.5257 -0.8506 0.0000
vn -0.1625 -0.8506 -0.5000
vn 0.4253 -0.8506 -0.3090
vn 0.9510 0.0000 0.3090
vn -0.2764 -0.4472 0.8506
vn 0.2629 -0.5257 0.8090
vn 0.0000 0.0000 1.0000
vn -0.8944 -0.4472 0.0000
vn -0.6882 -0.5257 0.5000
vn -0.9510 0.0000 0.3090
vn -0.2764 -0.4472 -0.8506
vn -0.6882 -0.5257 -0.5000
vn -0.5878 0.0000 -0.8090
vn 0.7236 -0.4472 -0.5257
vn 0.2629 -0.5257 -0.8090
vn 0.5878 0.0000 -0.8090
vn 0.5878 0.0000 0.8090
vn -0.5878 0.0000 0.8090
vn -0.9510 0.0000 -0.3090
vn 0.0000 0.0000 -1.0000
vn 0.9510 0.0000 -0.3090
vn 0.2764 0.4472 0.8506
vn 0.6882 0.5257 0.5000
vn 0.1625 0.8506 0.5000
vn -0.7236 0.4472 0.5257
vn -0.2629 0.5257 0.8090
vn -0.4253 0.8506 0.3090
vn -0.7236 0.4472 -0.5257
vn -0.8506 0.5257 0.0000
vn -0.4253 0.8506 -0.3090
vn 0.2764 0.4472 -0.8506
vn -0.2629 0.5257 -0.8090
vn 0.1625 0.8506 -0.5000
vn 0.8944 0.4472 0.0000
vn 0.6882 0.5257 -0.5000
vn 0.5257 0.8506 0.0000
vn 0.0000 1.0000 0.0000
usemtl None
s 1
f 1/1/1 14/2/2 13/3/3
f 2/4/4 14/2/2 16/5/5
f 1/1/1 13/3/3 18/6/6
f 1/7/1 18/8/6 20/9/7
f 1/7/1 20/9/7 17/10/8
f 2/4/4 16/5/5 23/11/9
f 3/12/10 15/13/11 25/14/12
f 4/15/13 19/16/14 27/17/15
f 5/18/16 21/19/17 29/20/18
f 6/21/19 22/22/20 31/23/21
f 2/4/4 23/11/9 26/24/22
f 3/12/10 25/14/12 28/25/23
f 4/26/13 27/27/15 30/28/24
f 5/18/16 29/20/18 32/29/25
f 6/21/19 31/23/21 24/30/26
f 7/31/27 33/32/28 38/33/29
f 8/34/30 34/35/31 40/36/32
f 9/37/33 35/38/34 41/39/35
f 10/40/36 36/41/37 42/42/38
f 11/43/39 37/44/40 39/45/41
f 39/45/41 42/42/38 12/46/42
f 39/45/41 37/44/40 42/42/38
f 37/44/40 10/40/36 42/42/38
f 42/42/38 41/39/35 12/46/42
f 42/42/38 36/41/37 41/39/35
f 36/41/37 9/37/33 41/39/35
f 41/39/35 40/47/32 12/46/42
f 41/39/35 35/38/34 40/47/32
f 35/48/34 8/34/30 40/36/32
f 40/36/32 38/33/29 12/46/42
f 40/36/32 34/35/31 38/33/29
f 34/35/31 7/31/27 38/33/29
f 38/33/29 39/45/41 12/46/42
f 38/33/29 33/32/28 39/45/41
f 33/32/28 11/43/39 39/45/41
f 24/30/26 37/44/40 11/43/39
f 24/30/26 31/23/21 37/44/40
f 31/23/21 10/40/36 37/44/40
f 32/29/25 36/41/37 10/40/36
f 32/29/25 29/20/18 36/41/37
f 29/20/18 9/37/33 36/41/37
f 30/28/24 35/38/34 9/37/33
f 30/28/24 27/27/15 35/38/34
f 27/17/15 8/34/30 35/48/34
f 28/25/23 34/35/31 8/34/30
f 28/25/23 25/14/12 34/35/31
f 25/14/12 7/31/27 34/35/31
f 26/24/22 33/32/28 7/31/27
f 26/24/22 23/11/9 33/32/28
f 23/11/9 11/43/39 33/32/28
f 31/23/21 32/29/25 10/40/36
f 31/23/21 22/22/20 32/29/25
f 22/22/20 5/18/16 32/29/25
f 29/20/18 30/28/24 9/37/33
f 29/20/18 21/19/17 30/28/24
f 21/19/17 4/26/13 30/28/24
f 27/17/15 28/25/23 8/34/30
f 27/17/15 19/16/14 28/25/23
f 19/16/14 3/12/10 28/25/23
f 25/14/12 26/24/22 7/31/27
f 25/14/12 15/13/11 26/24/22
f 15/13/11 2/4/4 26/24/22
f 23/11/9 24/30/26 11/43/39
f 23/11/9 16/5/5 24/30/26
f 16/5/5 6/21/19 24/30/26
f 17/10/8 22/22/20 6/21/19
f 17/10/8 20/9/7 22/22/20
f 20/9/7 5/18/16 22/22/20
f 20/9/7 21/19/17 5/18/16
f 20/9/7 18/8/6 21/19/17
f 18/8/6 4/26/13 21/19/17
f 18/6/6 19/16/14 4/15/13
f 18/6/6 13/3/3 19/16/14
f 13/3/3 3/12/10 19/16/14
f 16/5/5 17/10/8 6/21/19
f 16/5/5 14/2/2 17/10/8
f 14/2/2 1/7/1 17/10/8
f 13/3/3 15/13/11 3/12/10
f 13/3/3 14/2/2 15/13/11
f 14/2/2 2/4/4 15/13/11
